# xmcd
#
# Track frame offsets: 
#        150
#        18722
#        36590
#        53662
#
# Disc length: 1082 seconds
#
# Revision: 3
# Processed by: cddbd v1.5.2PL0 Copyright (c) Steve Scherf et al.
# Submitted via: ExactAudioCopy v0.95a5
#
DISCID=31043804
DTITLE=Jennifer Lopez - Waiting for Tonight [Australia CD Single]
DYEAR=1999
DGENRE=Soul And R&B
TTITLE0=Waiting for Tonight [Album Version]
TTITLE1=Waiting for Tonight [Pablo's Miami Mix Radio Edit]
TTITLE2=Waiting for Tonight [Hex's Momentous Radio Mix]
TTITLE3=If You Had My Love [Metro Club Mix]
EXTD=
EXTT0=
EXTT1=
EXTT2=
EXTT3=
PLAYORDER=
